#!OML:ASF F:\VICON\USERDATA\INSTALL\rory3\rory3.ASF
:FULLY-SPECIFIED
:DEGREES
3875
root -2.45269 13.9478 1.86264 5.82406 -3.02714 4.25232
lowerback 37.0741 1.53441 -5.3992
upperback 5.77445 -0.327863 -1.02417
thorax -11.9176 0.0237967 1.87239
lowerneck -19.2986 -1.47545 -6.23418
upperneck -1.66546 -0.894413 7.06391
head 2.59291 -0.108035 3.12053
rclavicle -1.14798e-014 -3.37934e-015
rhumerus -2.71945 -22.5365 -55.2477
rradius 110.187
rwrist -36.4181
rhand -19.5671 9.04497
rfingers 7.12502
rthumb 6.75774 -20.8272
lclavicle -1.14798e-014 -3.37934e-015
lhumerus 0.598888 8.08 49.479
lradius 81.4939
lwrist 34.4166
lhand -24.1427 15.7085
lfingers 7.12502
lthumb 2.33953 45.6754
rfemur -64.4997 -19.2268 10.4193
rtibia 96.3883
rfoot -33.2494 -2.91334
rtoes -9.48454
lfemur -63.9327 13.2106 -26.7715
ltibia 94.7904
lfoot -33.0243 6.59136
ltoes -6.10112
3876
root -2.45159 13.873 1.85041 5.87366 -2.90144 4.23167
lowerback 37.2296 1.49217 -5.38118
upperback 5.82937 -0.377548 -0.99932
thorax -11.9084 0.000318327 1.90928
lowerneck -19.3306 -1.53647 -6.2457
upperneck -1.81042 -0.96438 7.03711
head 2.55749 -0.144206 3.10856
rclavicle -2.73329e-015 -1.23246e-014
rhumerus -2.24393 -22.4828 -55.1781
rradius 109.846
rwrist -36.3579
rhand -20.5594 8.70924
rfingers 7.12502
rthumb 5.79972 -21.1914
lclavicle -2.73329e-015 -1.23246e-014
lhumerus 0.857244 8.02857 49.4809
lradius 81.5928
lwrist 34.5515
lhand -24.2988 16.2297
lfingers 7.12502
lthumb 2.18882 46.1982
rfemur -65.0776 -19.4979 10.4776
rtibia 97.0851
rfoot -33.3658 -2.95986
rtoes -9.51462
lfemur -64.486 12.939 -26.7417
ltibia 95.5093
lfoot -33.2543 6.67673
ltoes -5.80296
3877
root -2.44999 13.795 1.83569 5.98272 -2.80473 4.11668
lowerback 37.3677 1.41482 -5.25916
upperback 5.85328 -0.437063 -1.0175
thorax -11.9302 -0.0300215 1.84979
lowerneck -19.2929 -1.5771 -6.09595
upperneck -1.91696 -1.04639 6.95862
head 2.52312 -0.190419 3.05325
rclavicle -1.39149e-015 3.57812e-015
rhumerus -1.81417 -22.4424 -55.2528
rradius 109.558
rwrist -36.2938
rhand -19.1427 8.57642
rfingers 7.12502
rthumb 7.16744 -21.2822
lclavicle -1.39149e-015 3.57812e-015
lhumerus 1.25382 7.95041 49.3447
lradius 81.5255
lwrist 34.5872
lhand -24.3614 16.9828
lfingers 7.12502
lthumb 2.12831 46.9519
rfemur -65.7579 -19.7134 10.6795
rtibia 97.8075
rfoot -33.5026 -2.97565
rtoes -9.29928
lfemur -65.1771 12.7316 -26.6557
ltibia 96.253
lfoot -33.4042 6.93069
ltoes -5.84428
3878
root -2.45058 13.7159 1.81879 6.05104 -2.76658 4.03271
lowerback 37.5982 1.41423 -5.23108
upperback 5.85764 -0.442 -1.01795
thorax -12.0084 -0.0312858 1.83532
lowerneck -19.343 -1.63636 -6.061
upperneck -1.9611 -1.13022 6.99102
head 2.52274 -0.230327 3.05142
rclavicle -2.78299e-015 1.07344e-014
rhumerus -1.46699 -22.5707 -55.1833
rradius 109.381
rwrist -36.6427
rhand -19.073 8.34671
rfingers 7.12502
rthumb 7.23473 -21.5096
lclavicle -2.78299e-015 1.07344e-014
lhumerus 1.8186 7.86383 49.277
lradius 81.1176
lwrist 34.5411
lhand -24.0912 16.2951
lfingers 7.12502
lthumb 2.3893 46.2614
rfemur -66.4682 -19.8859 10.8842
rtibia 98.5558
rfoot -33.5912 -3.19914
rtoes -9.69595
lfemur -65.8492 12.6004 -26.6068
ltibia 97.0092
lfoot -33.601 7.13547
ltoes -5.76235
3879
root -2.4507 13.6387 1.80259 6.07754 -2.6176 4.00031
lowerback 37.8834 1.35998 -5.19255
upperback 5.84891 -0.510874 -1.00698
thorax -12.1172 -0.0599826 1.85454
lowerneck -19.3825 -1.65089 -6.08991
upperneck -2.04366 -1.1392 7.02847
head 2.50457 -0.232657 3.0672
rclavicle 5.36719e-015 1.23246e-014
rhumerus -1.10404 -22.6377 -55.0284
rradius 109.194
rwrist -37.0967
rhand -19.0684 8.02566
rfingers 7.12502
rthumb 7.23913 -21.8305
lclavicle 5.36719e-015 1.23246e-014
lhumerus 2.44776 7.80667 49.2142
lradius 80.5145
lwrist 34.4323
lhand -23.6938 15.7815
lfingers 7.12502
lthumb 2.77306 45.7432
rfemur -67.0718 -20.2305 11.0182
rtibia 99.2935
rfoot -33.6732 -3.45804
rtoes -10.6987
lfemur -66.436 12.3036 -26.5863
ltibia 97.7516
lfoot -33.7451 7.48668
ltoes -6.04003
3880
root -2.45236 13.562 1.7903 6.13266 -2.53487 3.85642
lowerback 38.1221 1.31906 -5.07846
upperback 5.80847 -0.530862 -0.989633
thorax -12.2499 -0.0687192 1.82128
lowerneck -19.3222 -1.60426 -5.99172
upperneck -2.1739 -1.09225 6.92977
head 2.45105 -0.215503 3.02384
rclavicle 4.87022e-015 -5.66536e-015
rhumerus -0.905778 -22.5202 -54.9227
rradius 108.917
rwrist -37.053
rhand -19.1265 8.81769
rfingers 7.12502
rthumb 7.18302 -21.0404
lclavicle 4.87022e-015 -5.66536e-015
lhumerus 3.05251 7.61618 49.0236
lradius 79.8711
lwrist 34.3124
lhand -23.441 15.849
lfingers 7.12502
lthumb 3.01718 45.8074
rfemur -67.6754 -20.4698 11.2767
rtibia 100.021
rfoot -33.8066 -3.53944
rtoes -11.1561
lfemur -67.0339 12.0998 -26.4389
ltibia 98.4985
lfoot -33.7646 7.92236
ltoes -6.93458
3881
root -2.4528 13.4887 1.78204 6.2343 -2.5159 3.65146
lowerback 38.2241 1.28955 -4.93131
upperback 5.81122 -0.512433 -0.967296
thorax -12.2872 -0.0648437 1.76039
lowerneck -19.302 -1.59281 -5.94002
upperneck -2.25762 -1.08411 6.88464
head 2.42114 -0.214322 3.00192
rclavicle -6.16232e-015 -6.4605e-015
rhumerus -0.66302 -22.4009 -54.7967
rradius 108.59
rwrist -36.8948
rhand -19.1145 9.39528
rfingers 7.12502
rthumb 7.19464 -20.4624
lclavicle -6.16232e-015 -6.4605e-015
lhumerus 3.4976 7.49621 48.8938
lradius 79.6086
lwrist 34.1743
lhand -23.5763 16.2801
lfingers 7.12502
lthumb 2.88651 46.2403
rfemur -68.2967 -20.5867 11.5969
rtibia 100.702
rfoot -33.9455 -3.51573
rtoes -10.8399
lfemur -67.6603 12.0162 -26.2807
ltibia 99.2333
lfoot -33.8556 8.37008
ltoes -8.07826
3882
root -2.4552 13.4118 1.76963 6.34717 -2.28452 3.60245
lowerback 38.3255 1.1828 -4.84467
upperback 5.84332 -0.614357 -0.971359
thorax -12.2826 -0.112933 1.75356
lowerneck -19.2515 -1.63621 -6.00906
upperneck -2.41664 -1.12835 7.02778
head 2.37086 -0.231481 3.05427
rclavicle -6.16232e-015 -2.38542e-015
rhumerus -0.167221 -22.3924 -54.687
rradius 108.191
rwrist -37.0086
rhand -18.8488 9.14644
rfingers 7.12502
rthumb 7.45106 -20.7023
lclavicle -6.16232e-015 -2.38542e-015
lhumerus 3.9706 7.5082 48.8509
lradius 79.4554
lwrist 34.0779
lhand -23.5849 16.4294
lfingers 7.12502
lthumb 2.87823 46.3897
rfemur -68.9439 -20.9487 11.7625
rtibia 101.405
rfoot -34.068 -3.65578
rtoes -11.0967
lfemur -68.3107 11.711 -26.2861
ltibia 99.9707
lfoot -34.014 8.72761
ltoes -9.23078
3883
root -2.45858 13.3321 1.75757 6.4197 -2.21943 3.64984
lowerback 38.4871 1.17748 -4.91284
upperback 5.85055 -0.665521 -1.02758
thorax -12.3271 -0.132201 1.74928
lowerneck -19.1847 -1.65199 -5.95843
upperneck -2.61979 -1.15724 7.08269
head 2.30195 -0.245981 3.06088
rclavicle -9.44227e-015 -2.98177e-015
rhumerus 0.28447 -22.4208 -54.6661
rradius 107.82
rwrist -37.1235
rhand -18.9977 8.56836
rfingers 7.12502
rthumb 7.30734 -21.2855
lclavicle -9.44227e-015 -2.98177e-015
lhumerus 4.52171 7.45587 48.7543
lradius 79.1893
lwrist 34.1621
lhand -23.591 16.0125
lfingers 7.12502
lthumb 2.87236 45.9729
rfemur -69.6283 -21.2018 11.8379
rtibia 102.126
rfoot -34.1524 -3.90458
rtoes -11.7031
lfemur -68.9344 11.5226 -26.3953
ltibia 100.727
lfoot -34.2034 9.08259
ltoes -9.7957
